<?xml version="1.0" encoding="utf-8"?>
<!-- Generator: Adobe Illustrator 21.0.2, SVG Export Plug-In . SVG Version: 6.00 Build 0)  -->
<svg version="1.1" id="Layer_1" xmlns="http://www.w3.org/2000/svg" xmlns:xlink="http://www.w3.org/1999/xlink" x="0px" y="0px"
	 viewBox="0 0 67 11.2" style="enable-background:new 0 0 67 11.2;" xml:space="preserve">
<g>
	<path d="M2.3,1.1l-1.4-1h4.5l-1,1v5.4c0,1.6-0.9,2.3-2.3,2.3C1.1,8.9,0.3,8.1,0,7.2h2.3V1.1z"/>
	<path d="M8.7,8.8c-1.8,0-3-1.3-3-3.1c0-1.8,1.2-3,2.9-3c1.7,0,2.9,1.2,2.9,3.1C11.6,7.5,10.4,8.8,8.7,8.8z M8.8,8
		c0.4,0,0.7-0.5,0.7-1.9c0-2-0.5-2.6-1-2.6C8.1,3.5,7.8,4,7.8,5.4C7.8,7.3,8.3,8,8.8,8z"/>
	<path d="M17.4,5.3h-3.3c0,1.3,0.9,1.9,1.7,1.9c0.7,0,1.1-0.3,1.5-0.7l0.3,0.1C17.1,8,16.3,8.8,15,8.8c-1.8,0-2.7-1.4-2.7-3
		c0-1.7,1.1-3.2,2.7-3.2c1.5,0,2.3,1,2.3,2.1V5.3z M15.7,4.6V4.4c0-0.6-0.2-0.9-0.7-0.9c-0.4,0-0.8,0.4-0.9,1.1H15.7z"/>
	<path d="M18.2,9.5h2.5l-2.9-6.7h3.3l-0.7,0.8l1.4,3.4h0l0.9-2.3l-0.9-1.9h2.4l-2.7,6.9c-0.3,0.9-1,1.5-1.8,1.5
		C19,11.2,18.2,10.7,18.2,9.5z"/>
	<path d="M30.5,7.7l1.3,1h-4.5l1-1V1.1l-1-1h3.8c1.9,0,3.2,0.5,3.2,2.2c0,1.5-1.5,2.5-3.2,2.5h-0.2V4.3H31c0.7,0,1.1-0.9,1.1-1.8
		c0-1.2-0.8-1.5-1.3-1.5h-0.2V7.7z"/>
	<path d="M39.4,5.3h-3.3c0,1.3,0.9,1.9,1.7,1.9c0.7,0,1.1-0.3,1.5-0.7l0.3,0.1c-0.4,1.3-1.2,2.2-2.5,2.2c-1.8,0-2.7-1.4-2.7-3
		c0-1.7,1.1-3.2,2.7-3.2c1.5,0,2.3,1,2.3,2.1V5.3z M37.7,4.6V4.4c0-0.6-0.2-0.9-0.7-0.9c-0.4,0-0.8,0.4-0.9,1.1H37.7z"/>
	<path d="M42.8,3.6v3.9H44c-0.4,0.9-1.1,1.3-1.8,1.3c-0.9,0-1.4-0.5-1.4-1.5V3.5l-0.6-0.2V2.8l2.6-2.1v2.1h1.1v0.8H42.8z"/>
	<path d="M47,7.8L48,8.7h-3.5l0.6-0.8V3.6l-0.6-0.8l2.1-0.1l-0.1,1.6h0c0.4-0.8,1-1.6,1.8-1.6c0.2,0,0.5,0.1,0.6,0.2v1.9H47V7.8z"/>
	<path d="M52.1,7.8l0.8,0.8h-3.5l0.8-0.8V3.6l-0.8-0.8l2.8-0.1V7.8z M51.2,2.1c-0.6,0-1.1-0.5-1.1-1.1c0-0.6,0.5-1.1,1.1-1.1
		c0.6,0,1.1,0.5,1.1,1.1C52.2,1.7,51.8,2.1,51.2,2.1z"/>
	<path d="M56,7.8l0.8,0.8h-3.6L54,7.8V1l-0.8-0.8L56,0V7.8z"/>
	<path d="M59.8,7.8l0.8,0.8H57l0.8-0.8V1L57,0.2L59.8,0V7.8z"/>
	<path d="M64.1,8.8c-1.8,0-3-1.3-3-3.1c0-1.8,1.2-3,2.9-3c1.7,0,2.9,1.2,2.9,3.1C67,7.5,65.7,8.8,64.1,8.8z M64.2,8
		c0.4,0,0.7-0.5,0.7-1.9c0-2-0.5-2.6-1-2.6c-0.4,0-0.7,0.5-0.7,1.9C63.2,7.3,63.7,8,64.2,8z"/>
</g>
</svg>
